<svg width="22" height="23" viewBox="0 0 22 23" fill="none" xmlns="http://www.w3.org/2000/svg">
<path d="M12.4756 6.18858C12.6613 5.83491 13.1781 5.83491 13.3638 6.18858L16.0099 11.2271C16.0576 11.3179 16.1331 11.3917 16.2259 11.4384L21.3759 14.0272C21.7374 14.2089 21.7374 14.7145 21.3759 14.8962L16.2259 17.485C16.1331 17.5316 16.0576 17.6055 16.0099 17.6962L13.3638 22.7347C13.1781 23.0884 12.6613 23.0884 12.4756 22.7347L9.82945 17.6962C9.78179 17.6055 9.70628 17.5316 9.61352 17.485L4.46344 14.8962C4.10194 14.7145 4.10194 14.2089 4.46344 14.0272L9.61352 11.4384C9.70628 11.3917 9.78179 11.3179 9.82945 11.2271L12.4756 6.18858Z" fill="url(#paint0_linear_5513_5055)"/>
<path d="M3.96872 3.1385C4.09255 2.90272 4.43707 2.90272 4.56089 3.1385L5.79771 5.49356C5.82949 5.55406 5.87983 5.60331 5.94167 5.63439L8.34887 6.84443C8.58987 6.96557 8.58987 7.30262 8.34887 7.42377L5.94167 8.6338C5.87983 8.66488 5.82949 8.71413 5.79771 8.77464L4.56089 11.1297C4.43707 11.3655 4.09255 11.3655 3.96872 11.1297L2.7319 8.77464C2.70013 8.71413 2.64979 8.66488 2.58795 8.6338L0.180752 7.42377C-0.0602504 7.30262 -0.0602505 6.96557 0.180751 6.84443L2.58795 5.63439C2.64979 5.60331 2.70013 5.55406 2.7319 5.49356L3.96872 3.1385Z" fill="url(#paint1_linear_5513_5055)"/>
<path d="M10.4415 0.0884183C10.5034 -0.0294726 10.6757 -0.0294728 10.7376 0.088418L11.4125 1.37351C11.4284 1.40376 11.4535 1.42839 11.4845 1.44393L12.798 2.10421C12.9185 2.16479 12.9185 2.33331 12.798 2.39389L11.4845 3.05417C11.4535 3.06971 11.4284 3.09434 11.4125 3.12459L10.7376 4.40968C10.6757 4.52757 10.5034 4.52757 10.4415 4.40968L9.76659 3.12459C9.7507 3.09434 9.72553 3.06971 9.69461 3.05417L8.38106 2.39389C8.26056 2.33331 8.26056 2.16479 8.38106 2.10421L9.69461 1.44393C9.72553 1.42839 9.7507 1.40376 9.76659 1.37351L10.4415 0.0884183Z" fill="url(#paint2_linear_5513_5055)"/>
<defs>
<linearGradient id="paint0_linear_5513_5055" x1="-1.12562e-07" y1="1.4375" x2="16.7549" y2="17.1872" gradientUnits="userSpaceOnUse">
<stop stop-color="#5483ED"/>
<stop offset="1" stop-color="#D9646D"/>
</linearGradient>
<linearGradient id="paint1_linear_5513_5055" x1="-1.12562e-07" y1="1.4375" x2="16.7549" y2="17.1872" gradientUnits="userSpaceOnUse">
<stop stop-color="#5483ED"/>
<stop offset="1" stop-color="#D9646D"/>
</linearGradient>
<linearGradient id="paint2_linear_5513_5055" x1="-1.12562e-07" y1="1.4375" x2="16.7549" y2="17.1872" gradientUnits="userSpaceOnUse">
<stop stop-color="#5483ED"/>
<stop offset="1" stop-color="#D9646D"/>
</linearGradient>
</defs>
</svg>
