<svg width="33" height="33" viewBox="0 0 33 33" fill="none" xmlns="http://www.w3.org/2000/svg">
<path d="M22.7028 32.2539H10.2972C4.89487 32.2539 0.5 27.859 0.5 22.4567V10.0511C0.5 4.64878 4.89487 0.253906 10.2972 0.253906H22.7028C28.1051 0.253906 32.5 4.64878 32.5 10.0511V22.4567C32.5004 27.859 28.1055 32.2539 22.7028 32.2539ZM10.2972 2.65013C6.21636 2.65013 2.89622 5.97027 2.89622 10.0511V22.4567C2.89622 26.5375 6.21636 29.8577 10.2972 29.8577H22.7028C26.784 29.8577 30.1042 26.5375 30.1042 22.4567V10.0511C30.1042 5.97027 26.784 2.65013 22.7028 2.65013H10.2972Z" fill="url(#paint0_radial_5559_6449)"/>
<path d="M16.4996 24.3496C12.0362 24.3496 8.40527 20.7183 8.40527 16.2549C8.40527 11.7915 12.0362 8.16016 16.4996 8.16016C20.963 8.16016 24.5943 11.7915 24.5943 16.2549C24.5943 20.7183 20.963 24.3496 16.4996 24.3496ZM16.4996 10.6137C13.3892 10.6137 10.8588 13.1441 10.8588 16.2549C10.8588 19.3652 13.3892 21.8956 16.4996 21.8956C19.6099 21.8956 22.1403 19.3652 22.1403 16.2549C22.1403 13.1445 19.6099 10.6137 16.4996 10.6137Z" fill="url(#paint1_radial_5559_6449)"/>
<path d="M27.5832 7.27937C27.5832 8.44341 26.6397 9.38686 25.4757 9.38686C24.3116 9.38686 23.3682 8.44341 23.3682 7.27937C23.3682 6.11532 24.3116 5.17188 25.4757 5.17188C26.6397 5.17188 27.5832 6.11532 27.5832 7.27937Z" fill="url(#paint2_radial_5559_6449)"/>
<defs>
<radialGradient id="paint0_radial_5559_6449" cx="0" cy="0" r="1" gradientUnits="userSpaceOnUse" gradientTransform="translate(-2.36258 33.6652) scale(59.0269)">
<stop stop-color="#F9ED41"/>
<stop offset="0.2412" stop-color="#FF833D"/>
<stop offset="0.401" stop-color="#EE5568"/>
<stop offset="0.4888" stop-color="#E7407B"/>
<stop offset="1" stop-color="#0028FF"/>
</radialGradient>
<radialGradient id="paint1_radial_5559_6449" cx="0" cy="0" r="1" gradientUnits="userSpaceOnUse" gradientTransform="translate(-2.36297 33.6661) scale(59.0269 59.0268)">
<stop stop-color="#F9ED41"/>
<stop offset="0.2412" stop-color="#FF833D"/>
<stop offset="0.401" stop-color="#EE5568"/>
<stop offset="0.4888" stop-color="#E7407B"/>
<stop offset="1" stop-color="#0028FF"/>
</radialGradient>
<radialGradient id="paint2_radial_5559_6449" cx="0" cy="0" r="1" gradientUnits="userSpaceOnUse" gradientTransform="translate(-2.3623 33.666) scale(59.0269 59.0267)">
<stop stop-color="#F9ED41"/>
<stop offset="0.2412" stop-color="#FF833D"/>
<stop offset="0.401" stop-color="#EE5568"/>
<stop offset="0.4888" stop-color="#E7407B"/>
<stop offset="1" stop-color="#0028FF"/>
</radialGradient>
</defs>
</svg>
